<svg xmlns="http://www.w3.org/2000/svg" xml:space="preserve" width="256" height="256" fill="#f56600" stroke="#f56600" stroke-width="4.097" viewBox="-20.48 -20.48 553.03 553.03"><path d="M434.012 112.927C431.784 108.328 378.096.413 255.836.071a30.609 30.609 0 0 0-1.94-.072c-25.435.507-48.54 10.541-64.596 27.032-16.037.306-79.838 6.951-114.941 91.824-14.022 33.918-18.953 73.494-14.264 114.463 3.099 27.001 8.83 46.924 17.022 59.212a8.978 8.978 0 0 0 7.473 3.997c.104 0 .209-.018.314-.022 1.978 44.465 10.476 93.43 49.422 130.412 7.048 6.686 14.623 12.674 22.369 18.29v57.881a8.98 8.98 0 0 0 8.982 8.982 8.98 8.98 0 0 0 8.982-8.982v-45.477l2.791 1.867 8.614 5.785c3.404 2.299 6.719 4.761 10.024 7.204 14.39 10.635 29.265 21.639 50.185 21.639s35.795-11.003 50.185-21.639c3.306-2.443 6.62-4.904 10.024-7.204l8.614-5.785 3.281-2.196v45.806a8.98 8.98 0 0 0 8.982 8.982 8.98 8.98 0 0 0 8.982-8.982v-58.237c7.575-5.513 14.979-11.389 21.879-17.934 30.235-28.708 45.568-63.156 49.7-111.697a8.932 8.932 0 0 0-1.005-4.942c34.999-44.121 69.697-115.298 27.097-197.351zM253.384 17.839c.62.135 1.24.198 1.868.198 111.221 0 162.088 101.708 162.699 102.948 26.741 51.514 23.525 104.286-9.584 156.852-6.782 10.761-14.183 20.426-21.396 28.825a115.103 115.103 0 0 0 3.323-19.914c2.335-30.118-10.375-59.94-34.008-79.773-59.814-50.176-109.182-54.362-123.679-54.362-2.596 0-4.078.135-4.303.162-10.977 0-22.726-4.249-34.915-12.629-10.394-7.148-16.783-18.626-18.198-31.012a9.008 9.008 0 0 0-.123-1.312 46.447 46.447 0 0 1 3.15-21.212l10.716-26.768c10.088-25.233 35.113-41.275 64.45-42.003zM77.943 231.271c-4.348-37.951.153-74.447 13.016-105.544 24.047-58.138 62.377-74.523 84.248-79.059a78.84 78.84 0 0 0-2.962 6.499l-10.707 26.768a64.155 64.155 0 0 0-4.584 23.521c-17.434 9.321-30.751 32.94-39.632 70.399-3.171 13.348-4.949 27.684-5.785 46.493-1.536 34.753-15.082 49.466-23.265 55.224-4.616-10.293-8.155-25.375-10.329-44.301zm267.911 182.624c-12.18 11.551-26.705 21.261-40.735 30.648l-8.722 5.848c-3.593 2.443-7.114 5.039-10.626 7.635-12.593 9.324-24.495 18.118-39.496 18.118-15.001 0-26.902-8.794-39.496-18.118-3.512-2.596-7.033-5.192-10.626-7.635l-8.722-5.848c-14.031-9.387-28.555-19.097-40.735-30.648-36.675-34.825-42.891-81.444-44.14-126.635-.001-.046-.009-.091-.011-.137 11.445-9.689 25.305-28.964 26.94-65.984.781-17.633 2.425-30.936 5.309-43.134 6.249-26.355 15.146-45.47 25.198-54.717 4.032 12.646 11.973 23.921 23.222 31.659 15.171 10.438 30.289 15.746 45.793 15.746h.189c.485-.018 50.778-4.294 115.541 50.041 19.205 16.115 29.534 40.268 27.648 64.62-1.644 21.109-10.123 41.068-25.241 59.302a8.984 8.984 0 0 0 .368 11.875 8.948 8.948 0 0 0 6.548 2.839 8.92 8.92 0 0 0 5.273-1.707c.423-.306 12.773-9.43 28.407-25.555-5.72 34.336-18.994 60.052-41.886 81.787z"/></svg>