<svg xmlns="http://www.w3.org/2000/svg" xml:space="preserve" width="256" height="256" fill="#fff" stroke="#fff" viewBox="0 0 442.995 442.995"><path d="M98.899 442.485h71.084v-51.363H60.266v-17.656h109.718v-23.552H60.266v-17.657h109.718v-23.548H60.266v-17.656h109.718v-23.552H60.266v-17.656h109.718v-23.552H60.266v-17.655h109.718v-23.55H60.266v-17.657h109.718V143.88H60.266v-17.654h109.718v-23.552H60.266V85.019h109.718V61.467H60.266V43.78h109.718V.51H98.899C44.284.51 0 44.792 0 99.416v244.167c0 54.612 44.284 98.902 98.899 98.902zm293.895-107.122a50.266 50.266 0 0 0-19.572 3.955L332.014 70.41 316.99 195.065l-.461 3.791-2.78 23.121c-.101 0-.209-.027-.309-.027-1.295 0-2.553.168-3.796.38a22.468 22.468 0 0 0-3.987 1.106l3.423-28.363 18.506-153.554-.076-.445c-6.893-44.989-17.985-44.981-24.766.032l-44.999 298.521a50.11 50.11 0 0 0-20.193-4.248c-27.726 0-50.211 22.478-50.211 50.209 0 27.728 22.486 50.205 50.211 50.205 16.113 0 30.412-7.622 39.605-19.42 6.624-8.508 10.607-19.172 10.607-30.785 0-2.465-.236-4.853-.573-7.217a51.032 51.032 0 0 0-2.156-9.029l10.856-64.88 2.048-17.02 3.065-25.447c.577.4 1.21.693 1.819 1.03 1.768.993 3.663 1.783 5.694 2.252l-2.669 22.165h25.828l13.894 81.17a49.344 49.344 0 0 0-2.433 9.759c-.336 2.364-.572 4.752-.572 7.217 0 12.059 4.26 23.111 11.345 31.767 9.209 11.249 23.199 18.438 38.868 18.438 27.723 0 50.217-22.485 50.217-50.213 0-27.724-22.477-50.217-50.201-50.217zm-155.228 79.824c-16.35 0-29.601-13.256-29.601-29.606 0-16.354 13.25-29.611 29.601-29.611 6.3 0 12.127 2.012 16.919 5.37 5.743 4.016 9.943 10.043 11.698 17.032.577 2.324.989 4.708.989 7.217.001 16.342-13.247 29.598-29.606 29.598zm87.919-164.016c-2.469 4.096-6.917 6.853-12.046 6.853-1.379 0-2.689-.261-3.956-.633a13.99 13.99 0 0 1-5.229-2.846 13.768 13.768 0 0 1-2.067-2.208c-1.771-2.36-2.854-5.258-2.854-8.432 0-4.388 2.048-8.251 5.174-10.84 1.122-.93 2.348-1.703 3.727-2.256 1.41-.565 2.962-.89 4.568-.958.225-.008.429-.068.646-.068 3.418 0 6.508 1.271 8.952 3.282 3.13 2.589 5.17 6.452 5.17 10.84-.016 2.665-.799 5.134-2.085 7.266zm67.309 164.016c-16.35 0-29.606-13.256-29.606-29.606 0-2.501.396-4.894.998-7.218 1.823-7.257 6.255-13.484 12.343-17.484 4.677-3.09 10.255-4.909 16.266-4.909 16.354 0 29.607 13.257 29.607 29.611-.001 16.35-13.261 29.606-29.608 29.606z"/></svg>