<svg xmlns="http://www.w3.org/2000/svg" xml:space="preserve" width="256" height="256" fill="#fff" stroke="#fff" viewBox="0 0 512 512"><path d="m407.335 74.217-29.654-44.481A66.782 66.782 0 0 0 322.116 0H157.508c-9.22 0-16.696 7.475-16.696 16.696v33.391c0 9.22 7.475 16.696 16.696 16.696H190.9v16.696c0 17.065-6.653 33.12-18.717 45.195l-9.783 9.783c-6.521 6.521-6.521 17.087 0 23.609 3.261 3.261 7.533 4.892 11.804 4.892s8.544-1.631 11.804-4.892l9.794-9.783c14.369-14.387 23.663-32.48 27.04-52.108h1.448c18.442 0 33.391 14.949 33.391 33.391v33.391h-5.564c-27.619 0-50.087 22.468-50.087 50.087v66.783c0 9.206-7.49 16.696-16.696 16.696h-33.391c-27.619 0-50.087 22.468-50.087 50.087v111.305c0 27.619 22.468 50.087 50.087 50.087h200.348c27.619 0 50.087-22.468 50.087-50.087V217.043c0-27.619-22.468-50.087-50.087-50.087h-27.826v-33.391c0-18.442 14.949-33.391 33.391-33.391h35.587a16.67 16.67 0 0 0 14.718-8.826 16.644 16.644 0 0 0-.826-17.131zM268.813 367.304H135.248v-16.696c0-9.206 7.49-16.696 16.696-16.696h33.391c27.619 0 50.087-22.468 50.087-50.087v-66.783c0-9.206 7.49-16.696 16.696-16.696h16.696v166.958zm83.478-166.956c9.206 0 16.696 7.49 16.696 16.696v150.261h-66.783V200.348h50.087z"/></svg>