<svg xmlns="http://www.w3.org/2000/svg" xml:space="preserve" width="256" height="256" fill="#f56600" stroke="#f56600" viewBox="0 0 375.84 375.84"><path d="M197.686 251.221c-7.03 2.512-7.088 10.533 0 12.564 7.088 2.032 29.636-1.518 59.285 17.096-5.524-24.615-52.256-32.182-59.285-29.66zm-15.099 0c-7.036-2.521-53.762 5.045-59.285 29.648 29.643-18.602 52.191-15.052 59.285-17.084 7.088-2.031 7.041-10.053 0-12.564zm7.876 62.8c-19.6-.724-39.352-10.369-40.006-5.512-1.255 9.296 7.794 60.044 13.569 62.298 5.774 2.266 26.332-3.014 28.364 5.033 9.056-7.544 23.64-2.254 26.897-5.279 3.271-3.012 16.068-57.042 9.798-62.04-2.989-2.417-20.738 6.153-38.622 5.5z"/><path d="M315.752 100.487c-18.1-14.071-31.399-54.27-33.665-61.305-7.543-1.506-14.573 7.035-14.573 7.035s-4.764-7.538-6.025-13.575c-6.784 1.016-13.568 6.54-13.568 6.54s-6.025-14.071-5.021-22.111c-5.277.257-12.12 8.04-12.12 8.04s.046-12.308-2.464-19.098c-12.798.753-19.093 6.527-19.093 6.527S204.715 6.767 205.217 0c-7.298.251-23.611 13.569-23.611 13.569s-4.524-2.762-3.013-7.042c-7.035.239-13.574 7.042-13.574 7.042s-4.759-4.029-3.001-10.556c-9.803.239-28.148 24.119-28.148 24.119s-6.971-4.986-4.268-7.532c-5.558 5.272-25.876 30.133-25.876 30.133s-8.787 5.284-11.047-.491c-6.784 5.021-12.057 26.122-12.057 26.122s-6.778-3.515-10.054-7.532c-3.264 4.759 0 33.648 0 33.648s-16.827 1.255-19.601-5.021c-1.255 5.786.502 152.241 25.124 158.78-6.527-119.568 31.651-119.568 35.166-125.109 3.515-5.523-8.034-28.649 0-34.663 8.034-6.014 14.579-11.059 31.149-10.042 16.576 1.004 39.69 15.081 39.69 15.081l56.786-19.612s36.666 56.774 57.767 77.886c21.112 21.106 8.046 105.566 16.594 107.038 8.547 1.494 20.609-151.266 2.509-165.331z"/></svg>